# xmcd CD database file
#
# Track frame offsets:
#	150
#	22338
#	39029
#	64465
#	80563
#	101327
#	116285
#	129830
#	158002
#	173588
#	187861
#	210326
#	228633
#
# Disc length: 3346 seconds
#
# Revision: 0
# Processed by: cddbd v1.5.2PL0 Copyright (c) Steve Scherf et al.
# Submitted via: CDex 1.70beta2
#
DISCID=990d100d
DTITLE=平田王子 - マイ・ジョアン　～デュオ集～
DYEAR=2008
DGENRE=Jazz
TTITLE0=教会にて
TTITLE1=波
TTITLE2=マイ・ジョアン
TTITLE3=川の流れ
TTITLE4=アーヴィ・ハーラ
TTITLE5=青い風の季節
TTITLE6=藍色の蝶々
TTITLE7=プラ・マシュカール・メウ・コラサォン
TTITLE8=リジア
TTITLE9=アカカの滝
TTITLE10=聖橋
TTITLE11=イパネマの娘
TTITLE12=音楽の理由
EXTD=YEAR: 2008
EXTT0=
EXTT1=
EXTT2=
EXTT3=
EXTT4=
EXTT5=
EXTT6=
EXTT7=
EXTT8=
EXTT9=
EXTT10=
EXTT11=
EXTT12=
PLAYORDER=
